G04 #@! TF.GenerationSoftware,KiCad,Pcbnew,(2017-11-06 revision 9df4ae65e)-makepkg*
G04 #@! TF.CreationDate,2018-07-16T22:38:28-07:00*
G04 #@! TF.ProjectId,MHz_LED_Modulator_v2,4D487A5F4C45445F4D6F64756C61746F,rev?*
G04 #@! TF.SameCoordinates,Original*
G04 #@! TF.FileFunction,Soldermask,Top*
G04 #@! TF.FilePolarity,Negative*
%FSLAX46Y46*%
G04 Gerber Fmt 4.6, Leading zero omitted, Abs format (unit mm)*
G04 Created by KiCad (PCBNEW (2017-11-06 revision 9df4ae65e)-makepkg) date 07/16/18 22:38:28*
%MOMM*%
%LPD*%
G01*
G04 APERTURE LIST*
%ADD10R,4.602480X4.602480*%
%ADD11C,4.602480*%
%ADD12O,1.801600X1.801600*%
%ADD13R,1.801600X1.801600*%
%ADD14R,8.611600X7.971600*%
%ADD15R,3.911600X1.721600*%
%ADD16R,1.101600X1.351600*%
%ADD17R,1.351600X1.101600*%
%ADD18R,0.601600X0.601600*%
%ADD19R,2.108200X0.685800*%
%ADD20R,1.208800X0.908800*%
%ADD21R,0.551600X0.908800*%
%ADD22R,0.900000X0.399720*%
%ADD23R,0.551600X0.701600*%
%ADD24R,1.902460X2.202180*%
%ADD25R,3.701600X1.501600*%
%ADD26R,1.501600X3.701600*%
%ADD27R,0.601600X1.001600*%
%ADD28R,1.161600X0.751600*%
%ADD29R,1.501600X0.401600*%
%ADD30R,1.001600X1.801600*%
%ADD31R,1.001600X0.601600*%
%ADD32R,2.202180X1.902460*%
%ADD33R,1.201600X1.201600*%
%ADD34R,0.851600X0.901600*%
%ADD35R,0.801600X1.401600*%
%ADD36R,0.751600X1.161600*%
%ADD37C,2.501600*%
%ADD38R,2.501600X2.501600*%
%ADD39R,1.401600X0.801600*%
%ADD40R,0.751600X1.321600*%
%ADD41R,0.685800X2.108200*%
%ADD42R,5.801601X2.057200*%
%ADD43R,1.701600X1.701600*%
%ADD44R,1.201600X1.701600*%
%ADD45C,1.601600*%
%ADD46R,1.401600X1.701600*%
%ADD47R,2.101600X1.701600*%
%ADD48O,1.828800X2.133600*%
%ADD49R,1.121600X0.711600*%
%ADD50R,3.911600X4.201600*%
%ADD51R,0.701600X5.711600*%
%ADD52R,1.371600X0.711600*%
%ADD53R,3.646600X4.511600*%
%ADD54R,1.451600X0.701600*%
%ADD55R,1.601600X0.701600*%
%ADD56R,0.901600X0.851600*%
G04 APERTURE END LIST*
D10*
X116530000Y-111700000D03*
X176080000Y-97260000D03*
D11*
X110730000Y-111010000D03*
X176060000Y-91350000D03*
D12*
X208270000Y-79410000D03*
D13*
X205730000Y-79410000D03*
D14*
X215543000Y-79415000D03*
D15*
X207603000Y-81955000D03*
X207603000Y-76875000D03*
D12*
X125460000Y-76190000D03*
D13*
X125460000Y-78730000D03*
D12*
X167390000Y-84990000D03*
D13*
X164850000Y-84990000D03*
D16*
X120200000Y-85940000D03*
X118200000Y-85940000D03*
X118410000Y-102830000D03*
X120410000Y-102830000D03*
D12*
X158040000Y-117000000D03*
X160580000Y-117000000D03*
X163120000Y-117000000D03*
X165660000Y-117000000D03*
D13*
X168200000Y-117000000D03*
D17*
X123870000Y-100510000D03*
X123870000Y-102510000D03*
D18*
X119058000Y-98585000D03*
X119058000Y-100785000D03*
D19*
X156560000Y-120546600D03*
X156560000Y-121613400D03*
D20*
X150533601Y-121443600D03*
D21*
X149415000Y-121443600D03*
X148635000Y-121443600D03*
D20*
X147526399Y-121443600D03*
X147526399Y-119736400D03*
D21*
X148645000Y-119736400D03*
X149425000Y-119736400D03*
D20*
X150533601Y-119736400D03*
D22*
X165928000Y-82924300D03*
X165928000Y-82423920D03*
X165928000Y-81926080D03*
X165928000Y-81425700D03*
X169028000Y-81425700D03*
X169028000Y-81926080D03*
X169028000Y-82423920D03*
X169028000Y-82924300D03*
D13*
X163568000Y-80505000D03*
D12*
X161028000Y-80505000D03*
D23*
X167060000Y-121520000D03*
X167060000Y-119420000D03*
D24*
X192808000Y-78625360D03*
X192808000Y-83024640D03*
D19*
X175568000Y-72531600D03*
X175568000Y-73598400D03*
X181278000Y-72458400D03*
X181278000Y-71391600D03*
D25*
X115358000Y-97115000D03*
X115358000Y-89515000D03*
D26*
X119158000Y-93315000D03*
X111558000Y-93315000D03*
D25*
X116278000Y-81045000D03*
X116278000Y-73445000D03*
D26*
X120078000Y-77245000D03*
X112478000Y-77245000D03*
D27*
X134668000Y-77925000D03*
X136168000Y-77925000D03*
D28*
X114458000Y-84795000D03*
X114458000Y-85745000D03*
X114458000Y-86695000D03*
X116658000Y-86695000D03*
X116658000Y-84795000D03*
X116658000Y-85745000D03*
X116858000Y-102715000D03*
X116858000Y-101765000D03*
X116858000Y-103665000D03*
X114658000Y-103665000D03*
X114658000Y-102715000D03*
X114658000Y-101765000D03*
D29*
X139678000Y-80175000D03*
X139678000Y-79675000D03*
X139678000Y-79175000D03*
X139678000Y-78675000D03*
X139678000Y-78175000D03*
X144078000Y-78175000D03*
X144078000Y-78675000D03*
X144078000Y-79175000D03*
X144078000Y-79675000D03*
X144078000Y-80175000D03*
D27*
X166088000Y-78025000D03*
X164588000Y-78025000D03*
D19*
X158148000Y-79298400D03*
X158148000Y-78231600D03*
D18*
X154028000Y-77755000D03*
X154028000Y-75555000D03*
D16*
X170578000Y-79265000D03*
X172578000Y-79265000D03*
D27*
X167138000Y-78035000D03*
X168638000Y-78035000D03*
D30*
X168920000Y-79840000D03*
X166020000Y-79840000D03*
D17*
X146458000Y-80155000D03*
X146458000Y-78155000D03*
D16*
X115268000Y-83065000D03*
X117268000Y-83065000D03*
D31*
X154008000Y-73005000D03*
X154008000Y-74505000D03*
D16*
X149958000Y-78175000D03*
X151958000Y-78175000D03*
D32*
X115968360Y-106085000D03*
X120367640Y-106085000D03*
D24*
X122158000Y-92514640D03*
X122158000Y-88115360D03*
D18*
X166268000Y-72825000D03*
X164068000Y-72825000D03*
D33*
X133028000Y-125025000D03*
X135828000Y-125025000D03*
D34*
X109538000Y-103955000D03*
X109538000Y-102455000D03*
D35*
X124308000Y-106125000D03*
X122408000Y-106125000D03*
D18*
X108388000Y-71855000D03*
X110588000Y-71855000D03*
D36*
X185158000Y-74345000D03*
X183258000Y-74345000D03*
X183258000Y-72145000D03*
X184208000Y-72145000D03*
X185158000Y-72145000D03*
D16*
X110678000Y-73775000D03*
X108678000Y-73775000D03*
D17*
X128768000Y-99125000D03*
X128768000Y-101125000D03*
D33*
X170418000Y-71545000D03*
X167618000Y-71545000D03*
X121308000Y-98605000D03*
X124108000Y-98605000D03*
D17*
X183738000Y-78075000D03*
X183738000Y-76075000D03*
D37*
X133488000Y-85145000D03*
D38*
X133488000Y-92645000D03*
D17*
X112028000Y-88265000D03*
X112028000Y-86265000D03*
D39*
X122268000Y-94655000D03*
X122268000Y-96555000D03*
D35*
X130340000Y-99460000D03*
X132240000Y-99460000D03*
D40*
X179418000Y-75015000D03*
X177518000Y-75015000D03*
X177518000Y-72395000D03*
X178468000Y-72395000D03*
X179418000Y-72395000D03*
D19*
X187408000Y-78628400D03*
X187408000Y-77561600D03*
D41*
X192064600Y-74845000D03*
X193131400Y-74845000D03*
D28*
X188398000Y-75545000D03*
X188398000Y-76495000D03*
X188398000Y-74595000D03*
X190598000Y-74595000D03*
X190598000Y-75545000D03*
X190598000Y-76495000D03*
D42*
X176440000Y-106267800D03*
X176440000Y-101112200D03*
X169620000Y-90782200D03*
X169620000Y-95937800D03*
D27*
X111698000Y-71885000D03*
X113198000Y-71885000D03*
D43*
X177768000Y-80365000D03*
D44*
X178918000Y-83265000D03*
X176618000Y-83265000D03*
D45*
X188918000Y-72055000D03*
D34*
X108478000Y-86765000D03*
X108478000Y-88265000D03*
D16*
X111078000Y-82975000D03*
X113078000Y-82975000D03*
D17*
X111498000Y-98725000D03*
X111498000Y-100725000D03*
D27*
X127178000Y-98955000D03*
X125678000Y-98955000D03*
D37*
X152208000Y-85145000D03*
D38*
X152208000Y-92645000D03*
X142918000Y-101695000D03*
D37*
X142918000Y-109195000D03*
X161608000Y-109205000D03*
D38*
X161608000Y-101705000D03*
D46*
X197602870Y-74477049D03*
D47*
X196352870Y-77377049D03*
D46*
X195102870Y-74477049D03*
X200602870Y-74477049D03*
D47*
X201852870Y-77377049D03*
D46*
X203102870Y-74477049D03*
D48*
X156718000Y-75575000D03*
X159258000Y-75575000D03*
X161798000Y-75575000D03*
X164338000Y-75575000D03*
X166878000Y-75575000D03*
X169418000Y-75575000D03*
X171958000Y-75575000D03*
X174498000Y-75575000D03*
D49*
X125860000Y-113575000D03*
X125860000Y-111035000D03*
X125860000Y-112305000D03*
X125860000Y-109765000D03*
D50*
X123755000Y-111670000D03*
D51*
X124755000Y-111670000D03*
X122330000Y-111670000D03*
D52*
X120395000Y-113575000D03*
X120395000Y-111035000D03*
X120395000Y-112305000D03*
X120395000Y-109765000D03*
D53*
X199005370Y-82127049D03*
D54*
X196557870Y-81492049D03*
X196557870Y-80222049D03*
X196557870Y-84032049D03*
X196557870Y-82762049D03*
D55*
X202672870Y-82762049D03*
X202672870Y-84032049D03*
X202672870Y-81492049D03*
X202672870Y-80222049D03*
D56*
X190948000Y-77755000D03*
X189448000Y-77755000D03*
D17*
X122320000Y-77270000D03*
X122320000Y-75270000D03*
X122100000Y-100510000D03*
X122100000Y-102510000D03*
D16*
X114708000Y-100025000D03*
X116708000Y-100025000D03*
D18*
X121148000Y-83005000D03*
X121148000Y-80805000D03*
D45*
X205398000Y-72295000D03*
X202310000Y-78710000D03*
D31*
X113078000Y-102565000D03*
X113078000Y-104065000D03*
D39*
X110128000Y-86415000D03*
X110128000Y-88315000D03*
X111418000Y-104205000D03*
X111418000Y-102305000D03*
D48*
X138938000Y-123825000D03*
X141478000Y-123825000D03*
X144018000Y-123825000D03*
X146558000Y-123825000D03*
X149098000Y-123825000D03*
X151638000Y-123825000D03*
X154178000Y-123825000D03*
X156718000Y-123825000D03*
X161798000Y-123825000D03*
X164338000Y-123825000D03*
X166878000Y-123825000D03*
X169418000Y-123825000D03*
X171958000Y-123825000D03*
X174498000Y-123825000D03*
X128778000Y-75575000D03*
X131318000Y-75575000D03*
X133858000Y-75575000D03*
X136398000Y-75575000D03*
X138938000Y-75575000D03*
X141478000Y-75575000D03*
X144018000Y-75575000D03*
X146558000Y-75575000D03*
X149098000Y-75575000D03*
X151638000Y-75575000D03*
M02*
