M48
INCH,TZ
T1C0.016
T2C0.039
T3C0.040
T4C0.047
T5C0.079
%
G90
G05
T1
X42621Y-37069
X42621Y-38187
X42621Y-39144
X42621Y-46482
X42621Y-47868
X42621Y-40136
X42621Y-41684
X42621Y-42742
X42621Y-45175
X42621Y-49262
X42637Y-29801
X42637Y-30671
X42637Y-31616
X42637Y-32581
X42637Y-33746
X42641Y-36077
X42688Y-28608
X42751Y-35470
X42913Y-48175
X42913Y-48963
X43019Y-29537
X43306Y-48569
X43307Y-49213
X43310Y-32356
X43312Y-30555
X43314Y-31341
X43413Y-36065
X43476Y-33278
X43503Y-40656
X43590Y-35467
X43700Y-48175
X43700Y-48963
X43720Y-34392
X43924Y-40656
X43964Y-29010
X44050Y-33455
X44094Y-48569
X44094Y-49213
X44322Y-40656
X44361Y-40018
X44397Y-36065
X44436Y-38222
X44464Y-38904
X44487Y-48175
X44487Y-48963
X44515Y-34156
X44527Y-35467
X44578Y-33817
X44625Y-33455
X44665Y-39368
X44693Y-42740
X44704Y-28675
X44720Y-40656
X44842Y-34762
X44869Y-37750
X44881Y-48569
X44882Y-49213
X44901Y-38837
X44983Y-32797
X45007Y-32407
X45169Y-31411
X45176Y-34514
X45243Y-28423
X45275Y-48175
X45275Y-48963
X45444Y-34770
X45456Y-36065
X45464Y-38833
X45515Y-39341
X45669Y-48569
X45669Y-49213
X45752Y-42744
X45767Y-32400
X45767Y-32844
X45810Y-34514
X45810Y-37758
X46019Y-28423
X46062Y-48175
X46062Y-48963
X46074Y-34766
X46086Y-31407
X46326Y-35463
X46334Y-38148
X46342Y-38793
X46417Y-39409
X46428Y-36065
X46445Y-40016
X46456Y-48569
X46457Y-49213
X46535Y-42610
X46696Y-31703
X46713Y-32374
X46768Y-34547
X46783Y-28620
X46798Y-39148
X46850Y-48175
X46850Y-48963
X46898Y-32953
X47019Y-28049
X47098Y-35030
X47196Y-37667
X47202Y-38756
X47243Y-48569
X47244Y-49213
X47248Y-33394
X47283Y-42384
X47299Y-40055
X47299Y-40913
X47361Y-38427
X47385Y-32699
X47634Y-41185
X47637Y-48175
X47637Y-48963
X47700Y-32998
X47704Y-32360
X47709Y-33575
X47717Y-34051
X47756Y-39980
X47791Y-37636
X47823Y-40783
X47830Y-35770
X47857Y-28620
X47865Y-30801
X47909Y-30041
X48011Y-32683
X48031Y-48569
X48031Y-49213
X48176Y-31659
X48196Y-40778
X48209Y-39969
X48318Y-28049
X48346Y-42384
X48397Y-30037
X48420Y-30805
X48424Y-48175
X48424Y-48963
X48425Y-32283
X48425Y-32677
X48425Y-33465
X48555Y-40776
X48571Y-41189
X48582Y-41656
X48621Y-34002
X48625Y-35549
X48642Y-39976
X48712Y-36667
X48716Y-37459
X48763Y-34675
X48787Y-28671
X48818Y-48569
X48819Y-29134
X48819Y-33071
X48819Y-49213
X48827Y-29965
X48936Y-38053
X49091Y-39976
X49130Y-40791
X49212Y-48175
X49212Y-48963
X49213Y-31890
X49213Y-32677
X49213Y-33465
X49213Y-34252
X49220Y-40374
X49303Y-39480
X49323Y-41268
X49467Y-28486
X49606Y-29081
X49606Y-48569
X49606Y-33858
X49606Y-49213
X49638Y-39945
X49728Y-38061
X49740Y-40343
X49756Y-40780
X49893Y-28053
X49999Y-48175
X49999Y-48963
X50000Y-29528
X50000Y-30315
X50000Y-31890
X50000Y-32677
X50000Y-33465
X50000Y-34252
X50138Y-41276
X50193Y-31055
X50267Y-38577
X50275Y-40100
X50279Y-39486
X50354Y-28533
X50393Y-48569
X50394Y-33858
X50394Y-49213
X50508Y-40760
X50590Y-29081
X50602Y-30429
X50787Y-48175
X50787Y-48963
X50787Y-31102
X50787Y-31890
X50787Y-32677
X50787Y-33465
X50877Y-39435
X50877Y-40179
X50909Y-41287
X51176Y-30321
X51180Y-48569
X51181Y-33858
X51181Y-49213
X51184Y-38691
X51503Y-28053
X51550Y-31140
X51574Y-32033
X51574Y-48175
X51574Y-48963
X51575Y-32677
X51575Y-33465
X51881Y-49262
X52078Y-28561
X52204Y-30250
X52617Y-31140
X52700Y-29045
X52924Y-48939
X53342Y-30774
X53606Y-28053
X53822Y-31108
X54003Y-49207
X54169Y-28557
X54200Y-30258
X54405Y-30919
X54507Y-31793
X54704Y-29045
X55220Y-49266
X55302Y-31852
X55708Y-28053
X56058Y-32848
X56145Y-30884
X56220Y-28553
X56247Y-29049
X57067Y-29264
X57208Y-31037
X57208Y-49266
X57235Y-31604
X57247Y-28502
X57546Y-28045
X57622Y-28791
X57645Y-32852
X57654Y-47012
X57654Y-48146
X57890Y-47476
X58149Y-31707
X58374Y-46764
X58420Y-31372
X58712Y-28789
X58928Y-31344
X58984Y-46551
X58984Y-47476
X59212Y-49266
X59235Y-32856
X59381Y-29041
X59448Y-30781
X59539Y-28053
X59672Y-31707
X59815Y-47972
X59826Y-31211
X59850Y-28545
X59870Y-47453
X59961Y-46799
X60129Y-29045
X60208Y-30766
X60295Y-29823
X60445Y-47720
X60449Y-46555
X60606Y-32852
X60641Y-31703
X60932Y-28053
X60960Y-30470
X60969Y-46799
X61039Y-47909
X61043Y-28604
X61055Y-47453
X61193Y-34433
X61196Y-48329
X61220Y-30077
X61382Y-33689
X61405Y-32852
X61480Y-49404
X61555Y-46555
X61688Y-29041
X61688Y-31132
X61747Y-28545
X61854Y-31707
X62118Y-46799
X62184Y-30486
X62228Y-34882
X62236Y-47650
X62248Y-48555
X62251Y-31522
X62401Y-32848
X62401Y-34002
X62520Y-47343
X62625Y-28045
X62661Y-49386
X62680Y-31707
X62850Y-31136
X62984Y-47335
X63118Y-48535
X63130Y-47744
X63165Y-28557
X63220Y-46799
X63276Y-32850
X63283Y-30486
X63335Y-35366
X63343Y-48169
X63398Y-33992
X63461Y-47217
X63649Y-29041
X63760Y-33425
X63819Y-48165
X63870Y-47217
X64086Y-31136
X64090Y-34404
X64098Y-32848
X64118Y-47693
X64172Y-28053
X64192Y-49407
X64228Y-28557
X64276Y-47028
X64369Y-34002
X64382Y-48138
X64386Y-35823
X64487Y-30486
X64524Y-42319
X64685Y-32848
X64685Y-43213
X64807Y-48150
X64874Y-46476
X64941Y-47224
X64960Y-31821
X65015Y-29041
X65031Y-34388
X65039Y-28518
X65122Y-32874
X65154Y-47906
X65213Y-45531
X65354Y-34002
X65448Y-28049
X65457Y-47098
X65461Y-35795
X65524Y-42016
X65610Y-36358
X65669Y-43020
X65791Y-47445
X65858Y-35181
X65885Y-32470
X65953Y-48157
X66008Y-46740
X66039Y-34404
X66196Y-49404
X66224Y-36409
X66247Y-32876
X66306Y-29057
X66315Y-47709
X66413Y-30339
X66480Y-33858
X66508Y-41724
X66524Y-35173
X66539Y-28187
X66622Y-42843
X66688Y-30892
X66724Y-30555
X66889Y-32793
X66898Y-36421
X66936Y-31691
X67083Y-48240
X67122Y-35173
X67146Y-30248
X67231Y-29128
X67378Y-33689
X67386Y-41433
X67531Y-36413
X67562Y-28439
X67567Y-30976
X67567Y-31469
X67646Y-42646
X67736Y-35165
X67857Y-29128
X67913Y-30459
X68027Y-33041
X68083Y-36421
X68087Y-35850
X68098Y-35374
X68138Y-41496
X68142Y-42154
X68157Y-34362
X68180Y-31896
X68204Y-49400
X68205Y-48240
X68319Y-30933
X68319Y-31453
X68524Y-42406
X68535Y-28986
X68609Y-28187
X68650Y-41268
X68803Y-33689
X68972Y-30415
X69046Y-30927
X69189Y-48437
X69217Y-42402
X69224Y-33305
X69268Y-49299
X69334Y-29274
X69350Y-41272
X69420Y-32167
X69543Y-28187
X69558Y-30022
X69728Y-31065
X69937Y-41276
X69941Y-42402
X69969Y-32799
X70244Y-30508
X70259Y-29069
X70271Y-29722
X70279Y-49404
X70319Y-33567
X70457Y-32244
X70531Y-41272
X70598Y-42402
X70665Y-28951
X70768Y-41807
X70889Y-29758
X70901Y-31065
X70968Y-28844
X70992Y-30150
X71058Y-29337
X71063Y-32614
X71256Y-33193
X71298Y-28852
X71369Y-29758
X71665Y-28856
X71724Y-32244
X71751Y-29337
X71823Y-30169
X71854Y-29758
X71897Y-31061
X71913Y-30608
X72177Y-32799
X72212Y-49404
X72217Y-30362
X72488Y-32248
X72523Y-28947
X72657Y-30346
X72846Y-29837
X72917Y-32516
X73212Y-30073
X73248Y-32106
X73251Y-28581
X73432Y-31254
X73437Y-31693
X73480Y-29817
X73764Y-32154
X73794Y-28057
X73846Y-31250
X74200Y-49404
X74220Y-31246
X74318Y-30967
X74440Y-28927
X74445Y-31878
X74748Y-31366
X74818Y-29061
X75015Y-28049
X75157Y-31569
X75169Y-30998
X75192Y-29002
X75609Y-28907
X75869Y-31569
X75968Y-28907
X76196Y-49404
X76342Y-29593
X76346Y-29238
X76354Y-28907
X76468Y-28053
X76495Y-31423
X76873Y-30990
X77751Y-30990
X77964Y-28691
X78007Y-28053
X78129Y-49404
X78385Y-29360
X78865Y-28683
X79574Y-28053
X79787Y-49404
X79898Y-46783
X79906Y-42811
X79909Y-44831
X79913Y-48457
X79968Y-28687
X80629Y-29215
X80795Y-30268
X80819Y-29862
X80854Y-30709
X81102Y-35970
X81102Y-37939
X81102Y-39907
X81102Y-41876
X81102Y-43844
X81102Y-45813
X81102Y-47781
X81106Y-49392
X81192Y-34506
X81232Y-29776
X81338Y-28057
X81350Y-28758
X81496Y-30756
X81929Y-29181
X81944Y-33423
X82027Y-28404
X82028Y-29756
X82086Y-34986
X82086Y-36955
X82086Y-38923
X82086Y-40892
X82086Y-42860
X82086Y-44829
X82086Y-46797
X82086Y-48766
X82457Y-30693
X82622Y-29823
X82669Y-30283
X82717Y-28941
X82728Y-28071
X82795Y-31067
X82807Y-31591
X82843Y-32343
X82878Y-33220
X82909Y-30665
X83070Y-34002
X83070Y-35970
X83070Y-37939
X83070Y-39907
X83070Y-41876
X83070Y-43844
X83070Y-45813
X83070Y-47781
X83208Y-29585
X83208Y-30372
X83208Y-31159
X83208Y-31947
X83208Y-32734
X83464Y-33215
X83602Y-28404
X83602Y-28404
X83602Y-29191
X83602Y-30766
X83602Y-31553
X83602Y-32341
X83602Y-29978
X83995Y-28797
X83995Y-29585
X83995Y-30372
X83995Y-31159
X83995Y-31947
X83995Y-32734
X84054Y-34986
X84054Y-36955
X84054Y-38923
X84054Y-40892
X84054Y-42860
X84054Y-44829
X84054Y-46797
X84054Y-48766
X84251Y-33215
X84389Y-28404
X84389Y-29191
X84389Y-29978
X84389Y-30766
X84389Y-31553
X84389Y-32341
X84783Y-28797
X84783Y-29585
X84783Y-30372
X84783Y-31159
X84783Y-31947
X84783Y-32734
X85039Y-33215
X85039Y-34002
X85039Y-35970
X85039Y-37939
X85039Y-39907
X85039Y-41876
X85039Y-43844
X85039Y-45813
X85039Y-47781
X85176Y-28404
X85176Y-29191
X85176Y-29978
X85176Y-30766
X85176Y-31553
X85176Y-32341
X85570Y-28797
X85570Y-29585
X85570Y-30372
X85570Y-31159
X85570Y-31947
X85570Y-32734
X85826Y-33215
X85964Y-28404
X85964Y-29191
X85964Y-29978
X85964Y-30766
X85964Y-31553
X85964Y-32341
X86023Y-34986
X86023Y-36955
X86023Y-38923
X86023Y-40892
X86023Y-42860
X86023Y-44829
X86023Y-46797
X86023Y-48766
X86357Y-28797
X86357Y-29585
X86357Y-30372
X86357Y-31159
X86357Y-31947
X86357Y-32734
X86613Y-33215
X86751Y-28404
X86751Y-29191
X86751Y-29978
X86751Y-30766
X86751Y-31553
X86751Y-32341
X87007Y-34002
X87007Y-35970
X87007Y-37939
X87007Y-39907
X87007Y-41876
X87007Y-43844
X87007Y-45813
X87007Y-47781
X87047Y-30394
X87047Y-32764
X87051Y-28795
X87051Y-29598
X87051Y-31150
X87051Y-31941
T2
X64902Y-33461
X65902Y-33461
X49394Y-29996
X49394Y-30996
X62220Y-46063
X63220Y-46063
X64220Y-46063
X65220Y-46063
X66220Y-46063
X63397Y-31695
X64397Y-31695
X80996Y-31264
X81996Y-31264
T3
X54700Y-48750
X55700Y-48750
X56700Y-48750
X57700Y-48750
X58700Y-48750
X59700Y-48750
X60700Y-48750
X61700Y-48750
X50700Y-29754
X51700Y-29754
X52700Y-29754
X53700Y-29754
X54700Y-29754
X55700Y-29754
X56700Y-29754
X57700Y-29754
X58700Y-29754
X59700Y-29754
X63700Y-48750
X64700Y-48750
X65700Y-48750
X66700Y-48750
X67700Y-48750
X68700Y-48750
X61700Y-29754
X62700Y-29754
X63700Y-29754
X64700Y-29754
X65700Y-29754
X66700Y-29754
X67700Y-29754
X68700Y-29754
T4
X56267Y-40037
X56267Y-42990
X52554Y-33522
X52554Y-36474
X63625Y-40041
X63625Y-42994
X59924Y-33522
X59924Y-36474
T5
X43594Y-43705
X45878Y-43976
X69315Y-35965
X69323Y-38291
T0
M30
